<?xml version="1.0" encoding="UTF-8"?>
<svg viewBox="0 0 640 480" xmlns="http://www.w3.org/2000/svg">
 <defs>
  <filter id="a">
   <feGaussianBlur stdDeviation="2.309128"/>
  </filter>
 </defs>
 <g transform="matrix(.9295 0 0 .9295 15.287 18.818)" fill="none" stroke="#ff1e5e" stroke-width="10">
  <path d="m341.34 25.891c-115.8 0-209.94 68.11-209.94 151.92 0 53.064 37.896 99.623 94.928 126.77 29.664 31.262-21.378 104.08-48.681 155.98-11.278 21.44 99.691-127.45 141.38-131.84 7.311 0.55899 14.797 0.81198 22.312 0.81198 115.8 0 209.73-67.908 209.73-151.72 0-83.815-93.928-151.92-209.73-151.92z" filter="url(#a)"/>
  <path d="m335.5 21.712c-115.8 0-209.94 68.11-209.94 151.92 0 53.064 37.896 99.623 94.927 126.77 29.664 31.262-21.378 104.08-48.681 155.98-11.278 21.441 99.691-127.44 141.38-131.84 7.311 0.55801 14.797 0.811 22.312 0.811 115.8 0 209.73-67.907 209.73-151.72 0-83.815-93.928-151.92-209.73-151.92z"/>
 </g>
</svg>
