<svg id="Capa_1" enable-background="new 0 0 512 512" height="512" viewBox="0 0 512 512" width="512" xmlns="http://www.w3.org/2000/svg"><g><path d="m477.342 214.949c-21.991-37.739-53.485-69.455-91.079-91.719l-3.535-2.094h-34.118v-60h-77.61v-61.136h-30v61.136h-77.609v60h-34.118l-3.535 2.094c-37.593 22.264-69.088 53.979-91.079 91.719-22.675 38.91-34.659 83.409-34.659 128.685v15h179.091c7.02 36.058 38.828 63.366 76.909 63.366s69.889-27.308 76.909-63.366h179.091v-15c0-45.276-11.984-89.775-34.658-128.685zm-283.951-123.813h125.219v30h-125.219zm62.609 300.864c-21.434 0-39.645-14.019-45.973-33.366h91.945c-6.328 19.347-24.538 33.366-45.972 33.366zm-225.503-63.366c2.304-34.75 12.586-68.557 30.082-98.582 18.744-32.167 45.306-59.38 76.982-78.917h236.879c31.677 19.537 58.238 46.75 76.982 78.917 17.495 30.024 27.777 63.832 30.081 98.582z"/><path d="m241 452h30v60h-30z"/><path d="m128.16 426.474h60v30h-60z" transform="matrix(.707 -.707 .707 .707 -265.845 241.141)"/><path d="m338.841 411.473h30v60h-30z" transform="matrix(.707 -.707 .707 .707 -208.532 379.511)"/></g></svg>